<?xml version="1.0" standalone="no"?>
<!DOCTYPE svg PUBLIC "-//W3C//DTD SVG 20010904//EN"
 "http://www.w3.org/TR/2001/REC-SVG-20010904/DTD/svg10.dtd">
<svg version="1.0" xmlns="http://www.w3.org/2000/svg"
 width="300.000000pt" height="300.000000pt" viewBox="0 0 300.000000 300.000000"
 preserveAspectRatio="xMidYMid meet">
<metadata>
Created by potrace 1.14, written by Peter Selinger 2001-2017
</metadata>
<g transform="translate(0.000000,300.000000) scale(0.100000,-0.100000)"
fill="#000000" stroke="none">
<path d="M169 2118 c-3 -6 -7 -50 -13 -158 -4 -63 -9 -140 -11 -170 -5 -72
-15 -217 -20 -305 -9 -158 -23 -381 -31 -482 l-5 -73 126 0 125 0 1 38 c2 50
6 145 13 272 3 58 9 173 12 255 4 83 8 170 9 195 2 25 3 76 4 114 1 76 6 82
15 21 13 -79 78 -345 150 -605 l72 -265 107 -3 106 -3 47 148 c25 81 47 152
49 158 1 5 5 17 8 25 17 46 97 311 141 470 l35 125 1 -90 c2 -147 20 -669 25
-760 2 -27 4 -60 4 -72 1 -23 3 -23 132 -23 l130 0 -6 132 c-4 73 -8 162 -10
198 -8 140 -16 269 -20 350 -13 240 -18 338 -20 370 -2 19 -3 59 -4 88 l-1 52
-177 0 -178 0 -57 -178 c-90 -284 -103 -329 -143 -489 -21 -84 -40 -152 -41
-150 -1 1 -19 74 -39 162 -20 88 -62 246 -92 350 -30 105 -62 216 -71 248
l-16 57 -178 0 c-98 0 -179 -1 -179 -2z"/>
<path d="M1669 2118 c-3 -7 -7 -51 -14 -163 -3 -66 -8 -141 -10 -165 -3 -25
-7 -94 -10 -155 -3 -60 -7 -135 -10 -165 -5 -67 -14 -197 -20 -305 -3 -44 -7
-115 -10 -157 l-6 -78 126 0 125 0 1 38 c0 20 2 64 4 97 3 57 7 127 21 425 10
220 13 284 14 335 1 42 7 26 36 -105 19 -85 71 -292 117 -460 l83 -305 108 0
108 0 50 160 c27 88 58 187 68 220 10 33 37 121 60 195 23 74 54 182 70 240
l28 105 2 -110 c3 -162 17 -584 25 -740 2 -33 4 -68 4 -77 1 -16 14 -18 132
-18 l130 0 -6 139 c-4 76 -8 160 -10 187 -2 27 -6 105 -10 174 -4 69 -8 154
-10 190 -2 36 -7 124 -11 195 -4 72 -8 146 -9 165 -1 19 -3 59 -4 88 l-1 52
-178 0 -178 0 -27 -87 c-15 -49 -47 -149 -71 -223 -24 -74 -65 -219 -92 -322
-26 -103 -50 -186 -51 -184 -4 3 -9 26 -19 81 -9 52 -93 376 -117 455 -13 41
-37 121 -53 178 l-29 102 -177 0 c-98 0 -179 -1 -179 -2z"/>
</g>
</svg>
